<svg xmlns="http://www.w3.org/2000/svg" width="237" height="116">
  <g fill="none">
    <path fill="#0A6077" d="M103 100.3L66 8.74l15.86.98 31.75 79.1"/>
    <path fill="#02445B" d="M98.82 90l-28.7-71L81.6 9.6l32 79.2"/>
    <path fill="#EFD27F" d="M104.4 80.5c0-2.64-2-4.86-4.83-5.26-2.62-.4-5.24 1.4-5.84 3.83-2.82-.2-5.44 1.82-5.85 4.85-.4 3.03 1.82 5.86 4.64 6.26 2.22.2 4.23-.8 5.44-2.62.6 2.02 2.42 3.63 4.64 3.84 3.02.4 5.84-1.82 6.24-4.65.2-3.23-1.6-5.86-4.43-6.26z"/>
    <g fill="#E2B544">
      <path d="M92.52 89.98c2.22.2 4.23-.8 5.44-2.62.6 2.02 2.42 3.63 4.64 3.83 3.02.4 5.84-1.9 6.24-4.7.4-2.9-1.6-5.5-4.43-6.1"/>
      <path d="M97.96 87.36c.6 2.02 2.42 3.63 4.64 3.83 3.02.4 5.84-1.9 6.24-4.7.4-2.9-1.6-5.5-4.43-6.1 0-2.7-2-4.9-4.8-5.3"/>
    </g>
    <path fill="#FFF0B0" d="M93.73 80.5c.2.4-.4 1.2-1.4 1.8-1.02.6-2.03.6-2.23.2-.2-.4.4-1.2 1.4-1.8.82-.62 1.83-.62 2.23-.2zm5.04-4.46c.2.4-.2 1-1.2 1.62-.82.4-1.63.6-1.83.2-.2-.4.2-1 1.2-1.6.82-.42 1.62-.62 1.83-.22z"/>
    <path fill="#EFD27F" d="M103.33 60c0-2.6-2.02-4.83-4.84-5.24-2.7-.4-5.3 1.42-5.9 3.84-2.8-.2-5.5 1.82-5.9 4.85-.4 3.03 1.8 5.86 4.8 6.26 2.2.2 4.2-.8 5.4-2.6.6 2 2.4 3.7 4.6 3.9 3.03.4 5.85-1.8 6.25-4.8 0-3-1.8-5.6-4.63-6z"/>
    <g fill="#E2B544">
      <path d="M91.43 69.5c2.22.2 4.24-.8 5.45-2.62.6 2.02 2.4 3.64 4.63 3.84 3.1.4 5.9-1.82 6.3-4.85.4-2.83-1.6-5.45-4.4-6.06"/>
      <path d="M96.88 66.88c.6 2.02 2.4 3.64 4.63 3.84 3.1.4 5.9-1.82 6.3-4.85.4-2.83-1.6-5.45-4.4-6.06 0-2.6-2-4.8-4.8-5.2"/>
    </g>
    <path fill="#FFF0B0" d="M92.44 60c.2.42-.4 1.23-1.4 1.83-1.02.6-2.02.6-2.22.2-.2-.4.4-1.2 1.4-1.8 1-.62 2.02-.62 2.22-.22zm5.24-4.23c.2.4-.2 1-1.2 1.62-.8.4-1.62.4-1.82 0-.2-.5.2-1.1 1.2-1.7.8-.4 1.62-.4 1.82 0z"/>
    <path fill="#EFD27F" d="M87.67 48.88c-1.35-.9-3.2-.92-4.4.44-1.06 1.22-1.35 3.1-.26 4.3-1.1 1.38-1 3.38.2 4.72 1.3 1.34 3.5 1.2 4.9-.05.9-1.1 1.3-2.4.8-3.7 1.2.5 2.8.2 3.7-.8 1.4-1.3 1.2-3.5 0-4.9-1.36-1.2-3.37-1.4-4.72-.1z"/>
    <g fill="#E2B544">
      <path d="M87.9 58.16c.93-1.07 1.27-2.38.75-3.63 1.18.5 2.73.24 3.66-.82 1.4-1.2 1.2-3.5 0-4.8-1.2-1.3-3.2-1.2-4.7-.1"/>
      <path d="M88.65 54.53c1.18.5 2.73.24 3.66-.82 1.4-1.2 1.2-3.5 0-4.8-1.2-1.3-3.2-1.2-4.7-.1-1.3-.9-3.2-.9-4.4.5"/>
    </g>
    <path fill="#FFF0B0" d="M83.77 54.3c.28-.02.48.68.38 1.4-.1.72-.5 1.18-.77 1.2-.28.02-.48-.7-.4-1.4.1-.73.35-1.32.8-1.2zm-.3-4.27c.3-.02.32.55.36 1.12.04.56-.36 1.02-.64 1.04-.3 0-.4-.6-.4-1.2.1-.7.3-1 .6-1.1z"/>
    <path fill="#EFD27F" d="M79.6 43.02c-.2-1-1-2.02-2-2.02-1.2 0-2.02.6-2.22 1.82-1.2 0-2.22 1-2.22 2.02 0 1.2.8 2.22 2.02 2.42 1 0 1.8-.4 2.2-1.2.2.8 1.02 1.4 2.03 1.4 1.3 0 2.3-.8 2.5-2.02-.2-1.2-1.2-2.22-2.2-2.42z"/>
    <g fill="#E2B544">
      <path d="M75.17 47.4c1 0 1.82-.4 2.22-1.22.2.8 1 1.4 2 1.4 1.2 0 2.2-.8 2.4-2 0-1.22-.8-2.23-2-2.43"/>
      <path d="M77.4 46.18c.2.8 1 1.4 2 1.4 1.22 0 2.22-.8 2.42-2 0-1.22-.8-2.23-2-2.43-.2-1-1.02-2.02-2.03-2.02"/>
    </g>
    <path fill="#FFF0B0" d="M75.63 43.3c.2.2-.2.6-.4.8-.4.2-.8.4-.8.2-.2-.2 0-.6.4-.8.2-.4.6-.4.8-.2zm2.02-2.02c.2.2 0 .4-.4.6-.4.2-.6.2-.8.2 0-.2 0-.4.4-.6.4-.2.6-.4.8-.2z"/>
    <g fill="#0A6077" transform="rotate(63 -11.97 72.04)">
      <ellipse cx="1.83" cy="1.84" rx="1.61" ry="1.62"/>
      <ellipse cx="7.87" cy="1.84" rx="1.61" ry="1.62"/>
      <ellipse cx="13.92" cy="1.84" rx="1.61" ry="1.62"/>
      <ellipse cx="19.96" cy="1.84" rx="1.61" ry="1.62"/>
      <ellipse cx="26.01" cy="1.84" rx="1.61" ry="1.62"/>
      <path d="M4.65 21.03c0 .8-.6 1.42-1.4 1.42-.82 0-1.42-.6-1.42-1.42 0-.8.6-1.4 1.4-1.4.8 0 1.42.6 1.42 1.4z"/>
      <ellipse cx="8.68" cy="21.03" rx="1.41" ry="1.41"/>
      <ellipse cx="13.92" cy="21.03" rx="1.41" ry="1.41"/>
      <ellipse cx="19.16" cy="21.03" rx="1.41" ry="1.41"/>
      <ellipse cx="24.6" cy="21.03" rx="1.41" ry="1.41"/>
    </g>
    <path fill="#EFD27F" d="M212.58 89.08c-1-1.62-3.03-2.23-4.84-1.62-1.8.8-2.62 2.63-2.22 4.44-1.8.8-2.62 3.03-1.8 5.05.8 2.02 3 2.83 5.03 2.02 1.4-.6 2.4-2.02 2.4-3.63 1.02 1 2.84 1.4 4.25.8 2-.8 2.82-3.02 2-5.04-.8-1.82-3-2.63-4.82-2.02z"/>
    <g fill="#E2B544">
      <path d="M208.75 98.97c1.4-.6 2.4-2.02 2.4-3.63 1.02 1 2.84 1.4 4.25.8 2-.8 2.82-3.02 2-5.04-.8-1.82-2.8-2.83-4.82-2.23"/>
      <path d="M210.96 95.54c1 1 2.82 1.4 4.24.8 2-.8 2.82-3.02 2-5.04-.8-1.82-2.8-2.83-4.83-2.22-.8-1.62-2.82-2.23-4.63-1.62"/>
    </g>
    <g fill="#FFF0B0" transform="translate(203.947 88.293)">
      <ellipse cx="1.29" cy="5.79" transform="rotate(-149.116 1.29 5.792)" rx=".6" ry="1.41"/>
      <path d="M3.6.18c.2.2.2.8-.2 1.4-.4.62-.82 1.02-1.22.82-.2-.2-.2-.8.2-1.4.4-.62 1-1.02 1.2-.82z"/>
    </g>
    <path fill="#EFD27F" d="M126.5 66.6c-.2-1.6-1.4-3.02-3.22-3.02-1.6 0-3.22 1-3.42 2.63-1.82 0-3.23 1.5-3.43 3.3-.2 1.8 1.4 3.5 3.23 3.7 1.4 0 2.62-.6 3.22-1.8.4 1.2 1.6 2.2 3.02 2.2 1.82.2 3.43-1.4 3.63-3.2 0-1.8-1.2-3.4-3.02-3.6z"/>
    <g fill="#E2B544">
      <path d="M119.66 72.87c1.4 0 2.62-.6 3.22-1.82.4 1.22 1.6 2.23 3.02 2.23 1.82.2 3.43-1.42 3.63-3.24.2-1.8-1.2-3.23-3.02-3.63"/>
      <path d="M122.88 71.05c.4 1.22 1.6 2.23 3.02 2.23 1.82.2 3.43-1.42 3.63-3.24.2-1.8-1.2-3.23-3.02-3.63-.2-1.6-1.4-3-3.2-3"/>
    </g>
    <path fill="#FFF0B0" d="M119.86 67.22c.2.2-.2.8-.8 1.2-.6.4-1.22.4-1.42.2-.2-.2.2-.8.8-1.2.6-.4 1.22-.6 1.42-.2zm3.02-3.04c.2.2-.2.6-.6 1-.4.42-1 .42-1.2.22-.2-.2.2-.6.6-1 .6-.42 1-.42 1.2-.22z"/>
    <path fill="#EFD27F" d="M168.03 66.13c-.2-1.6-1.4-3.03-3.22-3.03-1.6 0-3.2 1-3.4 2.63-1.8 0-3.2 1.4-3.4 3.23-.2 1.82 1.4 3.44 3.2 3.64 1.4 0 2.6-.6 3.2-1.82.4 1.2 1.7 2.22 3.1 2.22 1.8.2 3.4-1.4 3.6-3.23 0-1.82-1.2-3.43-3-3.64z"/>
    <g fill="#E2B544">
      <path d="M161.18 72.4c1.4 0 2.62-.6 3.22-1.82.4 1.2 1.62 2.22 3.03 2.22 1.8.2 3.42-1.4 3.62-3.23.2-1.82-1.2-3.23-3.02-3.64"/>
      <path d="M164.4 70.58c.4 1.2 1.62 2.22 3.03 2.22 1.8.2 3.42-1.4 3.62-3.23.2-1.82-1.2-3.23-3.02-3.64-.2-1.6-1.4-3.03-3.22-3.03"/>
    </g>
    <g fill="#FFF0B0" transform="translate(159 63.48)">
      <ellipse cx="1.38" cy="3.9" transform="rotate(-123.162 1.383 3.895)" rx=".6" ry="1.21"/>
      <path d="M5.4.23c.2.2-.2.6-.6 1-.4.4-1 .4-1.2.2-.2-.2.2-.6.6-1 .6-.4 1.2-.4 1.2-.2z"/>
    </g>
    <path fill="#EFD27F" d="M146.6 77.02c-.2-1-1-2.02-2-2.02-1.2 0-2.02.6-2.22 1.82-1.2 0-2.22 1-2.22 2.02 0 1.2.8 2.22 2.02 2.42 1 0 1.8-.4 2.2-1.2.2.8 1.02 1.4 2.03 1.4 1.3 0 2.3-.8 2.5-2.02-.2-1.2-1.2-2.22-2.2-2.42z"/>
    <g fill="#E2B544">
      <path d="M142.17 81.4c1 0 1.82-.4 2.22-1.22.2.8 1 1.4 2 1.4 1.2 0 2.2-.8 2.4-2 0-1.22-.8-2.23-2-2.43"/>
      <path d="M144.4 80.18c.2.8 1 1.4 2 1.4 1.22 0 2.22-.8 2.42-2 0-1.22-.8-2.23-2-2.43-.2-1-1.02-2.02-2.03-2.02"/>
    </g>
    <path fill="#FFF0B0" d="M142.63 77.3c.2.2-.2.6-.4.8-.4.2-.8.4-.8.2-.2-.2 0-.6.4-.8.2-.4.6-.4.8-.2zm2.02-2.02c.2.2 0 .4-.4.6-.4.2-.6.2-.8.2 0-.2 0-.4.4-.6.4-.2.6-.4.8-.2z"/>
    <path fill="#EFD27F" d="M111.15 73.97c-.2-1-1-2.02-2-2.02-1.02 0-2.03.6-2.23 1.82-1.2 0-2.2 1-2.2 2.02 0 1.2.8 2.2 2 2.4 1 0 1.8-.4 2.22-1.2.2.8 1 1.4 2 1.4 1.22 0 2.23-.8 2.43-2-.2-1.5-1-2.5-2.22-2.5z"/>
    <g fill="#E2B544">
      <path d="M106.72 78.22c1 0 1.8-.4 2.22-1.22.2.8 1 1.42 2 1.42 1.22 0 2.23-.8 2.43-2.02 0-1.22-.8-2.23-2-2.43"/>
      <path d="M108.74 76.8c.2.8 1 1.42 2 1.42 1.22 0 2.23-.8 2.43-2.03 0-1.3-.8-2.3-2.02-2.5-.2-1-1-2-2-2"/>
    </g>
    <path fill="#FFF0B0" d="M106.72 74.17c.2.2-.2.6-.4.8-.4.2-.8.42-.8.2-.2-.2.2-.6.4-.8.4-.2.8-.2.8-.2zm2.02-1.8c.2.2 0 .4-.4.6-.4.2-.6.2-.8.2 0-.2 0-.4.4-.6.4-.4.8-.4.8-.2z"/>
    <path fill="#EFD27F" d="M188.26 83.1c-.6-2.63-3.02-4.44-5.84-4.04-2.62.2-4.84 2.42-5.04 5.05-2.82.4-4.84 3.1-4.64 5.9.2 3.1 3.03 5.3 6.05 5.1 2.2-.2 4-1.8 4.6-3.6 1 1.8 3 3.1 5.2 2.9 3-.2 5.2-3 5-6.03-.2-3.02-2.7-5.04-5.5-5.04z"/>
    <g fill="#E2B544">
      <path d="M178.8 95.02c2.2-.2 4.02-1.82 4.62-3.64 1 1.82 3.03 3.03 5.24 2.83 3.03-.2 5.24-3 5.04-6-.2-2.8-2.62-5-5.64-5"/>
      <path d="M183.42 91.18c1 1.82 3.03 3.03 5.24 2.83 3.03-.2 5.24-3 5.04-6-.2-2.8-2.62-5-5.64-5-.6-2.6-3.02-4.4-5.85-4"/>
    </g>
    <path fill="#FFF0B0" d="M177.78 85.52c.4.4 0 1.22-.8 2.02s-1.82 1-2.22.6c-.4-.4 0-1.2 1-2 .8-.82 1.62-1.02 2.02-.62zm4.02-5.45c.4.4 0 1.2-.8 1.82-.8.6-1.6.8-1.8.6-.2-.4 0-1.3.8-1.9.8-.6 1.6-.8 1.8-.6z"/>
    <path fill="#EFD27F" d="M127.33 82c0-2.6-2.02-4.83-4.84-5.24-2.7-.4-5.3 1.42-5.9 3.84-2.8-.2-5.5 1.82-5.9 4.85-.4 3.03 1.8 5.86 4.8 6.26 2.2.2 4.2-.8 5.4-2.6.6 2 2.4 3.7 4.6 3.9 3.03.4 5.85-1.8 6.25-4.8 0-3-1.8-5.6-4.63-6z"/>
    <g fill="#E2B544">
      <path d="M115.43 91.5c2.22.2 4.24-.8 5.45-2.62.6 2.02 2.4 3.64 4.63 3.84 3.1.4 5.9-1.82 6.3-4.85.4-2.83-1.6-5.45-4.4-6.06"/>
      <path d="M120.88 88.88c.6 2.02 2.4 3.64 4.63 3.84 3.1.4 5.9-1.82 6.3-4.85.4-2.83-1.6-5.45-4.4-6.06 0-2.6-2-4.8-4.8-5.2"/>
    </g>
    <path fill="#FFF0B0" d="M116.44 82c.2.42-.4 1.23-1.4 1.83-1.02.6-2.02.6-2.22.2-.2-.4.4-1.2 1.4-1.8 1-.62 2.02-.62 2.22-.22zm5.24-4.23c.2.4-.2 1-1.2 1.62-.8.4-1.62.4-1.82 0-.2-.5.2-1.1 1.2-1.7.8-.4 1.62-.4 1.82 0z"/>
    <path fill="#EFD27F" d="M160.45 89.44c0-2.63-2-4.85-4.83-5.25-2.62-.5-5.24 1.4-5.85 3.8-2.82-.2-5.44 1.8-5.84 4.8-.4 3 1.8 5.8 4.83 6.2 2.22.2 4.24-.8 5.45-2.6.6 2 2.5 3.6 4.7 3.8 3 .4 5.9-1.8 6.3-4.7 0-3.05-1.8-5.68-4.6-6.28z"/>
    <g fill="#E2B544">
      <path d="M148.56 98.93c2.22.2 4.24-.8 5.44-2.62.6 2.1 2.42 3.7 4.64 3.9 3.02.4 5.84-1.8 6.25-4.6.4-2.8-1.7-5.4-4.5-6"/>
      <path d="M154 96.3c.6 2.03 2.42 3.64 4.64 3.84 3.02.4 5.84-1.8 6.25-4.64.4-2.83-1.7-5.46-4.5-6.06 0-2.63-2-4.85-4.9-5.25"/>
    </g>
    <path fill="#FFF0B0" d="M149.57 89.64c.2.4-.4 1.2-1.4 1.82-1.02.6-2.03.6-2.23.2-.2-.4.4-1.2 1.4-1.82 1.02-.6 2.03-.8 2.23-.2zm5.23-4.44c.2.4-.2 1-1.2 1.6-.8.42-1.6.62-2 .2-.22-.4.2-1 1.2-1.6 1-.6 1.8-.6 2-.2z"/>
    <path fill="#2D9EAA" d="M34.3 103.22L14.1 53.15 65.63 8.2l37 91.55"/>
    <path fill="#18899B" d="M66.55 9.28l36.62 90.62-68.33 3.48"/>
    <path fill="#99CCCE" d="M31 95.36L17.13 60.98 71.4 22.75l25.2 62.4"/>
    <path fill="#88BCBC" d="M72.2 24.83l24.7 61.1-65.6 10.2"/>
    <path fill="#18899B" d="M27.4 85.63l-5.45-13.45L79.7 42.55l9.8 24.3"/>
    <path fill="#2D9EAA" d="M26.94 84.5l-5-12.32L79.7 42.54"/>
    <path fill="#EFD27F" d="M46.12 84.7L35.56 58.56l24.56-14.7 13.9 34.38"/>
    <path fill="#E2B544" d="M60.94 44.92l13.74 34-26.6 6.4"/>
    <g fill="#0A6077" transform="rotate(66 -10.174 70.298)">
      <circle cx="1.63" cy="1.64" r="1.44"/>
      <circle cx="7.03" cy="1.64" r="1.44"/>
      <circle cx="12.43" cy="1.64" r="1.44"/>
      <circle cx="17.83" cy="1.64" r="1.44"/>
      <circle cx="23.23" cy="1.64" r="1.44"/>
      <path d="M4.15 18.74c0 .72-.54 1.26-1.26 1.26-.8 0-1.3-.54-1.3-1.26s.5-1.26 1.2-1.26 1.2.54 1.2 1.26z"/>
      <ellipse cx="7.75" cy="18.74" rx="1.26" ry="1.26"/>
      <ellipse cx="12.43" cy="18.74" rx="1.26" ry="1.26"/>
      <ellipse cx="17.11" cy="18.74" rx="1.26" ry="1.26"/>
      <ellipse cx="21.97" cy="18.74" rx="1.26" ry="1.26"/>
    </g>
  </g>
</svg>
